<?xml version="1.0" encoding="utf-8"?>
<!-- Generator: Adobe Illustrator 22.0.0, SVG Export Plug-In . SVG Version: 6.00 Build 0)  -->
<svg version="1.1" id="Layer_1" xmlns="http://www.w3.org/2000/svg" xmlns:xlink="http://www.w3.org/1999/xlink" x="0px" y="0px"
	 viewBox="0 0 723.6 171.4" style="enable-background:new 0 0 723.6 171.4;" xml:space="preserve">
<style type="text/css">
	.st0{fill:#775F4E;}
	.st1{fill:#D7A928;}
</style>
<g>
	<g>
		<polygon class="st0" points="123.8,44.6 123.8,29.4 61.2,29.4 61.2,100 124,100 124,84.9 76.4,84.9 76.4,44.6 		"/>
	</g>
	<rect x="60.2" y="115.7" class="st0" width="63.5" height="15.1"/>
	<rect x="29.3" y="28.6" class="st0" width="15.1" height="102.7"/>
	<rect x="90.7" y="57.2" class="st0" width="33.3" height="16.3"/>
	<path class="st1" d="M0,1.7v155.8h155.8V150V1.7H0z M15.1,16.8l125.6,0l0,125.6H15.1V16.8z"/>
</g>
<g>
	<path class="st1" d="M226.9,113.7c-2.3-2.3-5.1-4.2-8.2-5.5c-3.2-1.4-6.6-2-10.3-2h-17.6v51.2H209c3.5,0,6.8-0.7,9.8-2
		c3-1.3,5.7-3.2,8-5.5c2.3-2.3,4.1-5.1,5.4-8.2c1.3-3.1,2-6.5,2-10.1c0-3.4-0.7-6.7-2-9.7C231,118.7,229.2,116,226.9,113.7z
		 M228.3,139.2c-0.9,2.6-2.3,4.9-4.2,7c-1.9,2.1-4.2,3.8-7,5.2c-2.8,1.3-6.1,2-9.8,2h-12.1v-43.3h12.2c3.8,0,7,0.7,9.8,2
		c2.8,1.3,5.1,3,7,5.1c1.9,2.1,3.2,4.4,4.2,6.9c0.9,2.5,1.4,5,1.4,7.5C229.7,134,229.2,136.6,228.3,139.2z"/>
	<path class="st1" d="M283.4,129.8c-1.1-2.5-2.5-4.6-4.4-6.4c-1.8-1.8-4-3.3-6.4-4.3c-2.4-1-5.1-1.6-7.8-1.6c-2.8,0-5.5,0.5-7.9,1.6
		c-2.5,1.1-4.6,2.5-6.4,4.4c-1.8,1.9-3.3,4-4.4,6.5c-1.1,2.5-1.6,5.1-1.6,7.9c0,2.8,0.5,5.4,1.6,7.9c1.1,2.5,2.5,4.6,4.4,6.4
		c1.8,1.8,4,3.3,6.4,4.3c2.5,1,5.1,1.6,7.9,1.6c3.3,0,6.3-0.7,9-2.1c2.8-1.4,5-3.2,6.7-5.4l-3.2-2.6c-1.5,1.9-3.3,3.3-5.5,4.4
		c-2.2,1.1-4.5,1.6-7,1.6c-2,0-4-0.4-6-1.1c-1.9-0.8-3.6-1.8-5.1-3.3c-1.5-1.4-2.7-3.1-3.6-5.1c-0.9-2-1.4-4.2-1.4-6.7h36.4
		C285.1,134.9,284.5,132.3,283.4,129.8z M249.2,134.1c0.5-2.1,1.4-4,2.5-5.6c1.1-1.6,2.4-2.9,3.8-3.9c1.4-1,2.9-1.8,4.6-2.3
		c1.6-0.5,3.3-0.7,4.9-0.7s3.2,0.3,4.8,0.8c1.6,0.5,3.1,1.3,4.5,2.3c1.4,1,2.7,2.3,3.8,3.9c1.1,1.6,1.9,3.4,2.5,5.6H249.2z"/>
	<path class="st1" d="M313.2,136.3c-0.3-0.1-0.8-0.3-1.6-0.5c-0.8-0.2-1.5-0.5-2.4-0.7c-0.8-0.2-1.6-0.5-2.4-0.7
		c-0.8-0.2-1.3-0.4-1.6-0.5c-1.6-0.6-2.7-1.5-3.5-2.6c-0.8-1.1-1.2-2.3-1.2-3.7c0-1,0.2-1.9,0.6-2.7c0.4-0.8,1-1.5,1.7-2
		c0.7-0.6,1.5-1,2.5-1.3c0.9-0.3,1.9-0.5,2.9-0.5c1.6,0,3,0.4,4.3,1.1c1.3,0.8,2.2,1.8,2.7,3.2l4.5-0.2c-0.7-2.2-2.1-4-4.1-5.5
		c-2.1-1.5-4.5-2.2-7.4-2.2c-1.7,0-3.3,0.3-4.7,0.8c-1.4,0.5-2.7,1.3-3.7,2.2c-1.1,1-1.9,2-2.5,3.3c-0.6,1.2-0.9,2.6-0.9,3.9
		c0,2,0.6,3.9,1.7,5.6c1.1,1.7,2.8,2.9,5,3.8c0.3,0.1,0.9,0.3,1.6,0.5c0.8,0.2,1.6,0.5,2.4,0.7c0.9,0.3,1.6,0.5,2.4,0.7
		c0.7,0.2,1.2,0.4,1.5,0.5c2.2,0.9,3.7,1.9,4.6,3c0.9,1.1,1.3,2.6,1.3,4.4c0,1.1-0.2,2.1-0.7,3.1c-0.5,0.9-1.1,1.7-1.9,2.4
		c-0.8,0.7-1.7,1.2-2.8,1.5c-1,0.4-2.1,0.6-3.3,0.6c-1.9,0-3.6-0.5-5.1-1.4c-1.5-0.9-2.5-2.2-3.1-3.9l-4.5,0.3
		c0.3,1.3,0.9,2.4,1.7,3.5c0.8,1,1.7,2,2.8,2.7c1.1,0.8,2.3,1.4,3.7,1.8c1.4,0.4,2.9,0.7,4.5,0.7c1.8,0,3.5-0.3,5.1-0.9
		c1.6-0.6,2.9-1.4,4.1-2.5c1.1-1,2-2.2,2.7-3.6c0.7-1.4,1-2.8,1-4.4C321.2,141.8,318.5,138.3,313.2,136.3z"/>
	<rect x="333.6" y="118.2" class="st1" width="4.4" height="39.2"/>
	<path class="st1" d="M360.5,119.6c-2,0.9-3.8,2.2-5.4,3.8c-1.5,1.6-2.8,3.5-3.7,5.6c-0.9,2.1-1.4,4.5-1.4,7c0,2.5,0.5,4.8,1.4,6.9
		c0.9,2.1,2.2,4,3.7,5.5c1.6,1.6,3.4,2.8,5.4,3.7c2,0.9,4.2,1.3,6.4,1.3c2.6,0,5.1-0.5,7.2-1.5c2.2-1,4.1-2.5,5.8-4.7v6.4
		c0,1.9-0.3,3.6-1,5.3c-0.6,1.7-1.5,3.1-2.6,4.4c-1.1,1.2-2.5,2.2-4,3c-1.6,0.7-3.2,1.1-5.1,1.1c-2.2,0-4.4-0.5-6.5-1.6
		c-2.1-1.1-3.8-2.8-5.1-5.2h-4.5c0.6,1.8,1.5,3.3,2.6,4.6c1.1,1.3,2.4,2.5,3.8,3.4c1.4,0.9,2.9,1.6,4.6,2.1c1.6,0.5,3.3,0.7,5,0.7
		c2.1,0,4.1-0.4,6.1-1.3c2-0.9,3.8-2.1,5.3-3.7c1.6-1.6,2.8-3.5,3.8-5.6c1-2.1,1.5-4.5,1.5-7.1v-35.5H367
		C364.7,118.2,362.6,118.6,360.5,119.6z M370.3,122.3c1.4,0,2.9,0,4.3,0h5.3V136c0,1.9-0.3,3.6-1,5.2c-0.7,1.6-1.6,3-2.8,4.2
		c-1.2,1.2-2.5,2.1-4.1,2.8c-1.6,0.7-3.2,1-5,1c-1.8,0-3.4-0.3-5-1c-1.6-0.7-2.9-1.6-4.1-2.8c-1.2-1.2-2.1-2.6-2.8-4.2
		c-0.7-1.6-1-3.3-1-5.2c0-1.9,0.4-3.6,1.1-5.3c0.7-1.7,1.6-3.1,2.8-4.4c1.2-1.3,2.5-2.3,4.1-3c1.6-0.7,3.2-1.1,5-1.1
		C367.8,122.3,368.8,122.3,370.3,122.3z"/>
	<path class="st1" d="M425.9,121.8c-1.4-1.4-3-2.4-4.8-3.2c-1.8-0.8-3.7-1.1-5.8-1.1c-2.8,0-5.3,0.6-7.5,1.9c-2.2,1.3-4.1,3-5.7,5.2
		v-6.4H398v39.2h4.2V134c0-1.8,0.4-3.4,1.2-4.9c0.8-1.5,1.8-2.8,3-4c1.2-1.1,2.6-2,4.2-2.6c1.6-0.6,3.1-1,4.6-1
		c1.4,0,2.8,0.3,4.1,0.8c1.3,0.5,2.5,1.3,3.5,2.2c1,1,1.8,2.1,2.4,3.3c0.6,1.3,0.9,2.7,0.9,4.2v25.3h4.2v-24.9
		c0-2.1-0.4-4.1-1.2-5.9C428.3,124.7,427.3,123.1,425.9,121.8z"/>
	<path class="st1" d="M459.9,136.3c-0.3-0.1-0.8-0.3-1.6-0.5c-0.8-0.2-1.6-0.5-2.4-0.7c-0.8-0.2-1.6-0.5-2.4-0.7
		c-0.8-0.2-1.3-0.4-1.6-0.5c-1.6-0.6-2.7-1.5-3.5-2.6c-0.8-1.1-1.2-2.3-1.2-3.7c0-1,0.2-1.9,0.6-2.7c0.4-0.8,1-1.5,1.7-2
		c0.7-0.6,1.5-1,2.5-1.3c0.9-0.3,1.9-0.5,2.9-0.5c1.6,0,3,0.4,4.3,1.1c1.3,0.8,2.2,1.8,2.7,3.2l4.5-0.2c-0.7-2.2-2.1-4-4.1-5.5
		c-2.1-1.5-4.5-2.2-7.4-2.2c-1.7,0-3.3,0.3-4.7,0.8c-1.4,0.5-2.7,1.3-3.7,2.2c-1.1,1-1.9,2-2.5,3.3c-0.6,1.2-0.9,2.6-0.9,3.9
		c0,2,0.6,3.9,1.7,5.6c1.1,1.7,2.8,2.9,5,3.8c0.3,0.1,0.9,0.3,1.6,0.5c0.8,0.2,1.6,0.5,2.4,0.7c0.9,0.3,1.6,0.5,2.4,0.7
		c0.7,0.2,1.2,0.4,1.5,0.5c2.2,0.9,3.7,1.9,4.6,3c0.9,1.1,1.3,2.6,1.3,4.4c0,1.1-0.2,2.1-0.7,3.1c-0.5,0.9-1.1,1.7-1.9,2.4
		c-0.8,0.7-1.7,1.2-2.8,1.5c-1,0.4-2.1,0.6-3.3,0.6c-1.9,0-3.6-0.5-5.1-1.4c-1.5-0.9-2.5-2.2-3.1-3.9l-4.5,0.3
		c0.3,1.3,0.9,2.4,1.7,3.5c0.8,1,1.7,2,2.8,2.7c1.1,0.8,2.3,1.4,3.7,1.8c1.4,0.4,2.9,0.7,4.5,0.7c1.8,0,3.5-0.3,5.1-0.9
		c1.6-0.6,2.9-1.4,4.1-2.5c1.1-1,2-2.2,2.7-3.6c0.7-1.4,1-2.8,1-4.4C467.9,141.8,465.3,138.3,459.9,136.3z"/>
	<path class="st1" d="M521.6,129.8c-0.4-0.1-0.9-0.2-1.6-0.4c-0.7-0.2-1.5-0.3-2.2-0.5c-0.8-0.2-1.5-0.3-2.2-0.5
		c-0.7-0.2-1.3-0.3-1.7-0.5c-2.2-0.7-3.9-1.9-5.1-3.4c-1.1-1.5-1.7-3.4-1.7-5.5c0-1.3,0.2-2.5,0.7-3.6c0.5-1.1,1.1-2.1,2-3
		c0.8-0.9,1.8-1.5,3-2c1.1-0.5,2.4-0.7,3.7-0.7c1.9,0,3.5,0.4,4.9,1.3c1.4,0.9,2.5,2.1,3.4,3.6l4.8-0.1c-1-2.7-2.7-4.9-5.1-6.6
		c-2.3-1.7-5-2.5-8-2.5c-2,0-3.8,0.4-5.5,1.1c-1.7,0.7-3.2,1.7-4.4,2.9c-1.3,1.2-2.3,2.7-3,4.3c-0.7,1.6-1.1,3.4-1.1,5.3
		c0,3.3,0.9,6,2.8,8.3c1.9,2.2,4.5,3.9,7.8,4.9c0.5,0.1,1.1,0.3,1.8,0.5c0.7,0.2,1.4,0.3,2.1,0.5c0.7,0.2,1.4,0.3,2,0.5
		c0.6,0.1,1.1,0.3,1.4,0.4c2.1,0.8,3.8,2,5,3.6c1.2,1.6,1.8,3.5,1.8,5.8c0,1.4-0.3,2.7-0.8,4c-0.5,1.2-1.2,2.3-2.2,3.3
		c-0.9,0.9-2,1.7-3.3,2.2c-1.3,0.6-2.7,0.8-4.2,0.8c-2.3,0-4.4-0.6-6.1-1.9c-1.7-1.3-2.9-2.9-3.6-4.8l-4.8,0.1c0.4,1.6,1.1,3,2,4.3
		c0.9,1.3,2,2.5,3.3,3.4c1.3,1,2.7,1.7,4.2,2.3c1.6,0.5,3.2,0.8,5,0.8c2.1,0,4-0.4,5.9-1.2c1.8-0.8,3.4-1.8,4.8-3.1
		c1.4-1.3,2.4-2.9,3.2-4.6c0.8-1.8,1.2-3.7,1.2-5.7c0-3.3-0.8-6.2-2.5-8.5C527.5,132.5,525,130.8,521.6,129.8z"/>
	<path class="st1" d="M549.6,107.8h-4.2v10.5h-5v3.7h5v25c0,1.4,0.2,2.7,0.7,3.9c0.5,1.2,1.1,2.3,1.9,3.3c0.8,1,1.8,1.7,3,2.3
		c1.2,0.6,2.5,0.8,3.9,0.8h5.3v-3.6h-4.6c-1,0-1.9-0.2-2.7-0.7c-0.8-0.4-1.4-1-1.9-1.7c-0.5-0.7-0.9-1.5-1.1-2.3
		c-0.2-0.9-0.4-1.7-0.4-2.6V122h10.7v-3.7h-10.7V107.8z"/>
	<path class="st1" d="M599,141.5c0,1.8-0.4,3.4-1.2,4.9c-0.8,1.5-1.9,2.8-3.1,4c-1.3,1.1-2.7,2-4.3,2.6c-1.6,0.6-3.1,1-4.6,1
		c-1.4,0-2.8-0.3-4.1-0.8c-1.3-0.5-2.5-1.3-3.6-2.2c-1-1-1.8-2.1-2.5-3.3c-0.6-1.3-0.9-2.7-0.9-4.2v-25.3h-4.2v24.9
		c0,2.1,0.4,4.1,1.2,5.9c0.8,1.8,1.9,3.4,3.3,4.8c1.4,1.4,3,2.4,4.8,3.2c1.8,0.8,3.8,1.1,5.8,1.1c2.8,0,5.4-0.6,7.8-1.8
		c2.3-1.2,4.2-2.9,5.7-5.1v6.1h4.1v-39.2H599V141.5z"/>
	<path class="st1" d="M648.4,118.3h-13.8c-2.6,0-5,0.5-7.4,1.6c-2.3,1-4.4,2.5-6.1,4.3c-1.8,1.8-3.2,4-4.2,6.5c-1,2.5-1.6,5.2-1.6,8
		c0,2.7,0.5,5.3,1.6,7.6c1.1,2.3,2.5,4.4,4.3,6.1c1.8,1.8,3.9,3.1,6.2,4.1c2.3,1,4.7,1.5,7.1,1.5c3.1,0,5.9-0.7,8.3-2.1
		c2.4-1.4,4.3-3.3,5.6-5.6l0.1,7h4.1V106h-4.2V118.3z M648.4,138.7c0,2-0.3,4-1,5.9c-0.7,1.9-1.6,3.5-2.8,4.9
		c-1.2,1.4-2.6,2.5-4.3,3.3c-1.7,0.8-3.6,1.2-5.7,1.2c-2.1,0-4.1-0.4-6-1.2c-1.8-0.8-3.4-1.9-4.7-3.3c-1.3-1.4-2.4-3-3.1-4.9
		c-0.8-1.9-1.1-3.9-1.1-6c0-2.1,0.4-4.2,1.2-6.2c0.8-2,1.8-3.7,3.2-5.2c1.3-1.5,2.9-2.7,4.7-3.6c1.8-0.9,3.8-1.4,6-1.4h13.7V138.7z"
		/>
	<rect x="666.5" y="118.2" class="st1" width="4.4" height="39.2"/>
	<path class="st1" d="M722,129.9c-1.1-2.5-2.5-4.6-4.4-6.4c-1.8-1.8-4-3.3-6.4-4.4c-2.5-1.1-5.1-1.6-7.9-1.6c-2.8,0-5.5,0.5-7.9,1.6
		c-2.5,1.1-4.6,2.5-6.4,4.4c-1.8,1.8-3.3,4-4.4,6.4c-1.1,2.5-1.6,5.1-1.6,7.9c0,2.8,0.5,5.5,1.6,7.9c1.1,2.5,2.5,4.6,4.4,6.4
		s4,3.3,6.4,4.4c2.5,1.1,5.1,1.6,7.9,1.6c2.8,0,5.4-0.5,7.9-1.6c2.5-1.1,4.6-2.5,6.4-4.4c1.8-1.8,3.3-4,4.4-6.4
		c1.1-2.5,1.6-5.1,1.6-7.9C723.6,134.9,723,132.3,722,129.9z M718.1,144.1c-0.8,2-2,3.7-3.4,5.1c-1.5,1.5-3.2,2.6-5.1,3.5
		c-2,0.9-4,1.3-6.2,1.3c-2.2,0-4.3-0.4-6.3-1.3c-2-0.9-3.7-2-5.1-3.5c-1.5-1.5-2.6-3.2-3.4-5.1c-0.8-2-1.2-4.1-1.2-6.3
		c0-2.2,0.4-4.4,1.2-6.3c0.8-2,2-3.7,3.4-5.2c1.5-1.5,3.2-2.6,5.1-3.5c1.9-0.9,4-1.3,6.3-1.3c2.2,0,4.3,0.4,6.2,1.3
		c1.9,0.9,3.7,2,5.1,3.5s2.6,3.2,3.4,5.2c0.8,2,1.2,4.1,1.2,6.3C719.3,140,718.9,142.1,718.1,144.1z"/>
	<g>
		<path class="st0" d="M238.5,50.9c-3.2,3.2-8.4,4-12.9,4c-4.5,0-9.1-1.3-12.2-4.5c-3.2-3.1-4.2-6.8-4.2-11.3
			c0-4.5,1.6-8.4,4.8-11.5c3.1-3.2,7.1-4.8,11.6-4.8c4.5,0,8.4,1.6,11.6,4.8c0.1,0.1,0.1,0.1,0.2,0.2l12.7-19.1
			C245.7,5.3,236.6,0,225.6,0c-10.7,0-19.9,3.8-27.5,11.4c-7.6,7.6-11.4,16.9-11.4,27.6c0,10.7,3.8,19.9,11.4,27.5
			C205.7,74.2,215,78,225.6,78c10.9,0,16.3-1.2,25-8.3l2.3-2.3l-14.1-16.9C238.8,50.6,238.6,50.8,238.5,50.9z"/>
		<polygon class="st0" points="291.3,47.4 320.6,47.4 320.6,31.7 291.3,31.7 291.3,22.4 321.1,22.4 321.1,2.5 268.7,2.5 268.7,75.2 
			321.2,75.2 321.2,56 291.3,56 		"/>
		<path class="st0" d="M408.2,33.4c0-8.6-3.1-16.1-9.2-22.2c-6.1-6.1-13.6-8.7-22.2-8.7h-36v72.7h22.7V64.8h13.3
			c1.6,0,3.1-0.2,4.6-0.3l18.5,24.7L418,75.6l-16.8-22.5C405.8,47.5,408.2,40.9,408.2,33.4z M376.8,42.1h-13.3V24.8h13.3
			c4.8,0,8.6,3.9,8.6,8.6C385.4,38.1,381.6,42.1,376.8,42.1z"/>
		<g>
			<path class="st0" d="M479.5,2.5h-27l-25.2,72.7l23.9,0.1l3.3-9.6h23.1l3.4,9.5h23.8L479.5,2.5z M458.6,49.4l7.4-28l7.5,28.1
				L458.6,49.4z"/>
		</g>
		<polygon class="st0" points="574.2,2.7 558.7,22.9 543.2,2.6 543.1,2.6 543.1,2.5 520.6,2.5 520.6,75.2 543.1,75.2 543.1,39.7 
			558.8,60.4 574.2,40 574.2,75.2 596.7,75.2 596.7,2.5 574.2,2.5 		"/>
		<rect x="615.3" y="2.5" class="st0" width="22.6" height="72.7"/>
		<path class="st0" d="M708.8,50.6c0,0-0.2,0.2-0.3,0.3c-3.2,3.2-8.4,4-12.9,4c-4.5,0-9.1-1.3-12.2-4.5c-3.2-3.1-4.2-6.8-4.2-11.3
			c0-4.5,1.6-8.4,4.8-11.5c3.1-3.2,7.1-4.8,11.6-4.8c4.5,0,8.4,1.6,11.6,4.8c0.1,0.1,0.1,0.1,0.2,0.2l12.7-19.1
			C715.7,5.3,706.6,0,695.6,0c-10.7,0-19.9,3.8-27.5,11.4c-7.6,7.6-11.4,16.9-11.4,27.6c0,10.7,3.8,19.9,11.4,27.5
			S684.9,78,695.6,78c10.9,0,16.3-1.2,25-8.3l2.3-2.3L708.8,50.6z"/>
	</g>
	<polygon class="st1" points="399.9,89.2 412.5,106 430.6,92.4 418,75.6 	"/>
</g>
<rect x="333.6" y="106" class="st0" width="4.4" height="4.4"/>
<rect x="666.6" y="106" class="st0" width="4.4" height="4.4"/>
</svg>
